<svg xmlns="http://www.w3.org/2000/svg" viewBox="0 0 336.4 336.4" width="512" height="512"><path d="M329.2 63h-36.4V35c0-3.6-3.2-6.8-6.8-6.8H6.8C3.2 28.2 0 31.4 0 35v180c0 3.6 3.2 6.8 6.8 6.8h36.4v28c0 3.6 3.2 6.8 6.8 6.8h35.2v44.8c0 2.4 1.6 4.8 3.6 6 .8.8 2 .8 3.2.8s2.8-.4 4-1.2l73.2-50.4h160.4c3.6 0 6.8-3.2 6.8-6.8v-180c-.4-4-3.6-6.8-7.2-6.8zm-286 6.8v138.4H13.6V41.8h265.6V63H50c-3.6 0-6.8 3.2-6.8 6.8zM322.4 243H166.8c-1.2 0-2.8.4-4 1.2l-64 44.4v-38.8c0-3.6-3.2-6.8-6.8-6.8H56.8V76.6h265.6V243z" data-original="#231F20" class="active-path" data-old_color="#231F20" fill="#818181"/><path d="M105.2 120.6H274c3.6 0 6.8-3.2 6.8-6.8 0-4-3.2-6.8-6.8-6.8H105.2c-3.6 0-6.8 3.2-6.8 6.8 0 3.6 3.2 6.8 6.8 6.8zm0 43.2H274c3.6 0 6.8-3.2 6.8-6.8 0-3.6-3.2-6.8-6.8-6.8H105.2c-3.6 0-6.8 3.2-6.8 6.8 0 3.6 3.2 6.8 6.8 6.8zm0 43.2h94.4c3.6 0 6.8-3.2 6.8-6.8 0-4-2.8-6.8-6.8-6.8h-94.4c-3.6 0-6.8 3.2-6.8 6.8s3.2 6.8 6.8 6.8z" data-original="#231F20" class="active-path" data-old_color="#231F20" fill="#818181"/></svg>